<?xml version="1.0" encoding="utf-8"?>
<!-- Generator: Adobe Illustrator 16.0.3, SVG Export Plug-In . SVG Version: 6.00 Build 0)  -->
<!DOCTYPE svg PUBLIC "-//W3C//DTD SVG 1.1//EN" "http://www.w3.org/Graphics/SVG/1.1/DTD/svg11.dtd">
<svg version="1.1" id="Layer_1" xmlns="http://www.w3.org/2000/svg" xmlns:xlink="http://www.w3.org/1999/xlink" x="0px" y="0px"
	 width="701px" height="207px" viewBox="0 0 701 207" enable-background="new 0 0 701 207" xml:space="preserve">
<text transform="matrix(1 0 0 1 32.5 114.5)" fill="#FF0000" font-family="'MyriadPro-Regular'" font-size="42.5966">1</text>
<text transform="matrix(1 0 0 1 487 114.5)" fill="#0000FF" font-family="'MyriadPro-Regular'" font-size="42.5966">[1, 2, 3]</text>
<text transform="matrix(1 0 0 1 32.5 64.9443)" fill="#FF0000" font-family="'MyriadPro-Regular'" font-size="42.5966">‘Ключ’</text>
<text transform="matrix(1 0 0 1 487 64.9443)" fill="#0000FF" font-family="'MyriadPro-Regular'" font-size="42.5966">‘Значение’</text>
<text transform="matrix(1 0 0 1 487 171.9443)" fill="#0000FF" font-family="'MyriadPro-Regular'" font-size="42.5966">120</text>
<g>
	<line x1="98" y1="101" x2="479" y2="101"/>
	<g>
		<line fill="none" stroke="#000000" stroke-miterlimit="10" x1="98" y1="100.5" x2="471" y2="100.5"/>
		<g>
			<path d="M469.053,100.5l-2.191-3.604l0.123-0.081l5.875,2.333c2.047,0.451,4.094,0.9,6.141,1.352
				c-2.047,0.45-4.094,0.9-6.141,1.352l-5.875,2.333l-0.123-0.062L469.053,100.5z"/>
		</g>
	</g>
</g>
<g>
	<line x1="179" y1="55" x2="479" y2="55"/>
	<g>
		<line fill="none" stroke="#000000" stroke-miterlimit="10" x1="179" y1="54.5" x2="471" y2="54.5"/>
		<g>
			<path d="M469.053,54.5l-2.191-3.603l0.123-0.082l5.875,2.333c2.047,0.451,4.094,0.9,6.141,1.352
				c-2.047,0.45-4.094,0.9-6.141,1.352l-5.875,2.333l-0.123-0.062L469.053,54.5z"/>
		</g>
	</g>
</g>
<g>
	<line x1="403" y1="158" x2="479" y2="158"/>
	<g>
		<line fill="none" stroke="#000000" stroke-miterlimit="10" x1="403" y1="157.5" x2="471" y2="157.5"/>
		<g>
			<path d="M469.053,157.5l-2.191-3.604l0.123-0.081l5.875,2.333c2.047,0.451,4.094,0.9,6.141,1.352
				c-2.047,0.45-4.094,0.9-6.141,1.352l-5.875,2.333l-0.123-0.062L469.053,157.5z"/>
		</g>
	</g>
</g>
<text transform="matrix(1 0 0 1 32.5 171.9443)" fill="#FF0000" font-family="'MyriadPro-Regular'" font-size="42.5966">(Москва, Петушки)</text>
</svg>
