<?xml version="1.0" encoding="utf-8"?>
<!-- Generator: Adobe Illustrator 16.0.3, SVG Export Plug-In . SVG Version: 6.00 Build 0)  -->
<!DOCTYPE svg PUBLIC "-//W3C//DTD SVG 1.1//EN" "http://www.w3.org/Graphics/SVG/1.1/DTD/svg11.dtd">
<svg version="1.1" id="Layer_1" xmlns="http://www.w3.org/2000/svg" xmlns:xlink="http://www.w3.org/1999/xlink" x="0px" y="0px"
	 width="314px" height="198.314px" viewBox="0 0 314 198.314" enable-background="new 0 0 314 198.314" xml:space="preserve">
<rect x="43.5" y="62.006" fill="#C5FFC5" stroke="#000000" stroke-miterlimit="10" width="58" height="63"/>
<rect x="101.5" y="62.006" fill="#C5FFC5" stroke="#000000" stroke-miterlimit="10" width="59" height="63"/>
<rect x="160.5" y="62.006" fill="#C5FFC5" stroke="#000000" stroke-miterlimit="10" width="58" height="63"/>
<rect x="218.5" y="62.006" fill="#C5FFC5" stroke="#000000" stroke-miterlimit="10" width="59" height="63"/>
<text transform="matrix(1 0 0 1 33.6563 152.6523)" fill="#FF0000" font-family="'MyriadPro-Regular'" font-size="27">0</text>
<text transform="matrix(1 0 0 1 213.707 54.6377)" fill="#0000FF" font-family="'MyriadPro-Regular'" font-size="27">-1</text>
<text transform="matrix(1 0 0 1 152.1895 54.6377)" fill="#0000FF" font-family="'MyriadPro-Regular'" font-size="27">-2</text>
<text transform="matrix(1 0 0 1 90.6729 54.6377)" fill="#0000FF" font-family="'MyriadPro-Regular'" font-size="27">-3</text>
<text transform="matrix(1 0 0 1 29.1563 54.6377)" fill="#0000FF" font-family="'MyriadPro-Regular'" font-size="27">-4</text>
<text transform="matrix(1 0 0 1 91.3096 152.6523)" fill="#FF0000" font-family="'MyriadPro-Regular'" font-size="27">1</text>
<text transform="matrix(1 0 0 1 148.9619 152.6523)" fill="#FF0000" font-family="'MyriadPro-Regular'" font-size="27">2</text>
<text transform="matrix(1 0 0 1 206.6152 152.6523)" fill="#FF0000" font-family="'MyriadPro-Regular'" font-size="27">3</text>
<text transform="matrix(1 0 0 1 264.2676 152.6523)" fill="#FF0000" font-family="'MyriadPro-Regular'" font-size="27">4</text>
<g>
	<line fill="#2106ED" x1="272" y1="13.506" x2="51" y2="13.506"/>
	<g>
		<line fill="none" stroke="#0000FF" stroke-width="2" stroke-miterlimit="10" x1="272" y1="13.506" x2="59" y2="13.506"/>
		<g>
			<path fill="#0000FF" d="M61.251,13.506l2.191,3.603l-0.123,0.082l-5.875-2.333c-2.047-0.45-4.094-0.9-6.141-1.351
				c2.047-0.45,4.094-0.9,6.141-1.351l5.875-2.333l0.123,0.062L61.251,13.506z"/>
		</g>
	</g>
</g>
<g>
	<line fill="#FF0000" x1="51" y1="175.506" x2="272" y2="175.506"/>
	<g>
		<line fill="none" stroke="#FF0000" stroke-width="2" stroke-miterlimit="10" x1="51" y1="175.506" x2="264" y2="175.506"/>
		<g>
			<path fill="#FF0000" d="M261.856,175.506l-2.191-3.603l0.123-0.082l5.875,2.333c2.047,0.45,4.094,0.9,6.141,1.351
				c-2.047,0.45-4.094,0.9-6.141,1.351l-5.875,2.333l-0.123-0.062L261.856,175.506z"/>
		</g>
	</g>
</g>
</svg>
